<?xml version="1.0" encoding="iso-8859-1"?>
<!-- Generator: Adobe Illustrator 19.0.0, SVG Export Plug-In . SVG Version: 6.00 Build 0)  -->
<svg xmlns="http://www.w3.org/2000/svg" xmlns:xlink="http://www.w3.org/1999/xlink" version="1.1" id="Capa_1" x="0px" y="0px" viewBox="0 0 511.998 511.998" style="enable-background:new 0 0 511.998 511.998;" xml:space="preserve">
<path style="fill:#FFE477;" d="M370.713,252.147c-45.319,0.723-82.777-35.56-83.5-80.88c-0.723-45.319,35.56-82.777,80.879-83.5  c45.319-0.723,82.777,35.56,83.5,80.879C452.314,213.967,416.032,251.425,370.713,252.147z"/>
<g>
	<path style="fill:#FFDA44;" d="M369.402,169.958l30.237-76.424c-9.757-3.876-20.413-5.942-31.548-5.765   c-11.135,0.177-21.719,2.583-31.349,6.768L369.402,169.958z"/>
	<path style="fill:#FFDA44;" d="M370.713,252.148c11.135-0.177,21.719-2.583,31.349-6.768l-32.659-75.421l-30.237,76.424   C348.922,250.258,359.578,252.325,370.713,252.148z"/>
	<path style="fill:#FFDA44;" d="M369.403,169.958l-76.424-30.237c-3.876,9.757-5.942,20.413-5.765,31.548   c0.177,11.135,2.583,21.719,6.768,31.349L369.403,169.958z"/>
	<path style="fill:#FFDA44;" d="M451.592,168.647c-0.177-11.135-2.583-21.719-6.768-31.349l-75.421,32.659l76.424,30.237   C449.702,190.438,451.769,179.782,451.592,168.647z"/>
</g>
<path style="fill:#D1E7F8;" d="M369.85,166.189c-4.37-4.906-10.626-7.711-17.195-7.711H75.819c-6.569,0-12.826,2.805-17.195,7.711  c-4.369,4.906-6.436,11.443-5.678,17.97l34.796,299.862c1.347,11.613,11.183,20.373,22.874,20.373h207.243  c11.691,0,21.525-8.761,22.874-20.373l34.797-299.862C376.286,177.634,374.22,171.095,369.85,166.189z"/>
<path style="fill:#B9D8F4;" d="M183.271,484.022L148.475,184.16c-0.757-6.526,1.309-13.064,5.678-17.97  c4.37-4.906,10.626-7.711,17.195-7.711H75.819c-6.569,0-12.826,2.805-17.195,7.711c-4.37,4.906-6.436,11.443-5.678,17.97  l34.796,299.862c1.347,11.613,11.183,20.373,22.874,20.373h95.528C194.454,504.395,184.617,495.634,183.271,484.022z"/>
<path style="fill:#FFFFFF;" d="M312.139,432.075c-2.546-2.858-6.192-4.493-10.019-4.493H126.355c-3.827,0-7.473,1.634-10.019,4.493  c-2.546,2.858-3.749,6.668-3.308,10.47l2.27,19.563c0.786,6.767,6.516,11.87,13.327,11.87h171.224  c6.811,0,12.543-5.104,13.327-11.87l2.27-19.563C315.888,438.743,314.685,434.933,312.139,432.075z"/>
<path style="fill:#D1E7F8;" d="M126.355,427.582c-3.827,0-7.473,1.634-10.019,4.493c-2.546,2.858-3.749,6.668-3.308,10.471  l2.27,19.563c0.786,6.767,6.516,11.87,13.327,11.87h53.48l-5.384-46.396h-50.367V427.582z"/>
<path style="fill:#3E3D42;" d="M151.787,316.171c-8.599-0.346-15.352-7.664-15.006-16.262l11.14-277.288  c0.346-8.599,7.664-15.352,16.262-15.006l0,0c8.599,0.346,15.352,7.664,15.006,16.262l-11.14,277.288  C167.047,318.523,151.787,316.171,151.787,316.171z"/>
<path style="fill:#1D1D1F;" d="M142.463,158.478l-5.682,141.431c-0.346,8.599,6.408,15.917,15.006,16.262  c0,0,15.261,2.352,16.262-15.006l5.732-142.687L142.463,158.478L142.463,158.478z"/>
<path style="fill:#57565C;" d="M160.312,316.171c0,0-14.459,3.704-19.079-11.21L71.459,36.364c-2.164-8.33,2.88-16.915,11.21-19.079  l0,0c8.33-2.164,16.915,2.88,19.079,11.21l69.775,268.597C173.687,305.422,168.642,314.008,160.312,316.171z"/>
<path style="fill:#2D2D30;" d="M141.234,304.961c4.619,14.914,19.079,11.21,19.079,11.21c8.33-2.164,13.374-10.749,11.21-19.079  l-36.008-138.614h-32.333L141.234,304.961z"/>
<path style="fill:#FFFFFF;" d="M340.81,214.694c-2.659-2.986-6.467-4.693-10.465-4.693H98.13c-3.999,0-7.806,1.707-10.465,4.693  c-2.659,2.986-3.917,6.965-3.456,10.937l18.466,159.135c0.82,7.068,6.806,12.4,13.921,12.4h195.282  c7.115,0,13.101-5.332,13.921-12.4l18.467-159.135C344.727,221.659,343.469,217.68,340.81,214.694z"/>
<path style="fill:#DDFFFB;" d="M98.13,210c-3.999,0-7.806,1.707-10.465,4.693c-2.659,2.986-3.917,6.965-3.456,10.937l18.466,159.135  c0.82,7.068,6.806,12.4,13.921,12.4h56.596L151.473,210H98.13z"/>
<path style="fill:#FFDE55;" d="M166.501,302.073c-7.754,10.426-13.448,22.114-16.924,34.741c-0.05,0.164-0.139,0.469-0.259,0.906  c-1.241,4.524-5.101,20.86-2.684,41.137c0.241,2.026,1.287,3.869,2.901,5.117c1.614,1.248,3.661,1.794,5.683,1.517l96.631-13.247  c3.019-0.415,5.496-2.59,6.3-5.522c0.011-0.041,0.021-0.081,0.032-0.121c0.769-2.993-0.351-6.153-2.831-7.995l-78.214-58.099  C173.766,298.004,169.006,298.704,166.501,302.073z"/>
<path style="fill:#4E901E;" d="M163.983,341.743c0.12-0.437,0.21-0.742,0.259-0.906c3.477-12.628,9.17-24.315,16.924-34.741  c0.432-0.58,0.934-1.076,1.48-1.494l-5.511-4.094c-3.37-2.503-8.13-1.802-10.635,1.566c-7.754,10.426-13.448,22.114-16.924,34.741  c-0.05,0.164-0.139,0.469-0.259,0.906c-1.241,4.524-5.101,20.86-2.684,41.137c0.241,2.026,1.287,3.869,2.901,5.117  c1.614,1.248,3.661,1.794,5.683,1.517l6.504-0.891c-0.203-0.552-0.35-1.126-0.421-1.72  C158.882,362.603,162.742,346.266,163.983,341.743z"/>
<path style="fill:#FFE477;" d="M309.369,313.586c-4.129-12.319-10.473-23.669-18.853-33.734c-0.107-0.135-0.306-0.382-0.596-0.73  c-3.005-3.601-14.211-16.1-32.236-25.695c-1.801-0.959-3.91-1.154-5.857-0.541c-1.946,0.612-3.564,1.981-4.49,3.799l-44.311,86.888  c-1.385,2.715-1.013,5.991,0.935,8.325c0.026,0.031,0.054,0.064,0.081,0.095c2.018,2.34,5.251,3.226,8.18,2.243l92.359-31.024  C308.56,321.874,310.703,317.566,309.369,313.586z"/>
<path style="fill:#5EAC24;" d="M278.242,288.865c0.29,0.348,0.49,0.596,0.596,0.73c8.38,10.066,14.723,21.415,18.853,33.734  c0.23,0.685,0.35,1.381,0.381,2.068l6.508-2.186c3.979-1.336,6.123-5.645,4.788-9.625c-4.129-12.319-10.473-23.669-18.853-33.734  c-0.107-0.135-0.306-0.382-0.596-0.73c-3.005-3.601-14.211-16.1-32.236-25.695c-1.801-0.959-3.91-1.154-5.857-0.541  c-1.946,0.612-3.564,1.981-4.49,3.799l-2.983,5.848c0.569,0.149,1.124,0.356,1.653,0.637  C264.032,272.765,275.238,285.264,278.242,288.865z"/>
<path style="fill:#DDFFFB;" d="M235.651,284.094l-38.471-38.471c-7.491-7.491-7.491-19.751,0-27.243l38.471-38.471  c7.491-7.491,19.751-7.491,27.242,0l38.471,38.471c7.491,7.491,7.491,19.751,0,27.243l-38.471,38.471  C255.401,291.585,243.143,291.585,235.651,284.094z"/>
<path style="fill:#E1FD9F;" d="M197.179,218.38c-7.491,7.491-7.491,19.751,0,27.243l38.471,38.471  c7.491,7.491,19.751,7.491,27.243,0l38.471-38.471c7.491-7.491,7.491-19.751,0-27.243l-8.379-8.379h-87.427L197.179,218.38z"/>
<path style="fill:#FFFFFF;" d="M165.581,285.357l-38.471-38.471c-7.491-7.491-7.491-19.751,0-27.243l38.471-38.471  c7.491-7.491,19.751-7.491,27.243,0l38.471,38.471c7.491,7.491,7.491,19.751,0,27.243l-38.471,38.471  C185.332,292.848,173.072,292.848,165.581,285.357z"/>
<path style="fill:#EBFEC0;" d="M127.11,219.643c-7.491,7.491-7.491,19.751,0,27.243l38.471,38.471  c7.491,7.491,19.751,7.491,27.243,0l38.471-38.471c7.491-7.491,7.491-19.751,0-27.243l-9.642-9.642h-84.901L127.11,219.643z"/>
<path d="M128.625,481.582h171.224c10.673,0,19.65-7.995,20.882-18.597l2.27-19.563c0.69-5.952-1.199-11.932-5.183-16.404  c-3.984-4.474-9.706-7.04-15.698-7.04H126.355c-5.991,0-11.713,2.566-15.697,7.039c-3.985,4.473-5.874,10.453-5.184,16.405  l2.27,19.563C108.975,473.588,117.951,481.582,128.625,481.582z M122.014,437.132c1.101-1.237,2.684-1.947,4.34-1.947H302.12  c1.657,0,3.238,0.71,4.341,1.948c1.101,1.237,1.624,2.891,1.433,4.537l-2.27,19.561c-0.34,2.932-2.823,5.143-5.774,5.143H128.625  c-2.951,0-5.433-2.211-5.774-5.142l-2.27-19.563C120.389,440.023,120.912,438.369,122.014,437.132z"/>
<path d="M466.797,168.405c-0.409-25.706-10.753-49.812-29.126-67.876c-18.352-18.043-42.589-27.979-68.249-27.979  c0,0-77.519-2.65-94.573,78.325h-93.151l5.09-126.691c0.248-6.189-1.939-12.116-6.159-16.688c-4.22-4.574-9.952-7.229-16.141-7.477  c-12.815-0.503-23.651,9.489-24.165,22.299l-4.329,107.764L109.108,26.583c-3.224-12.409-15.941-19.88-28.35-16.658  c-5.995,1.557-11.032,5.369-14.185,10.735c-3.152,5.365-4.031,11.621-2.474,17.616l29.25,112.599H75.82  c-8.73,0-17.067,3.739-22.874,10.258c-5.807,6.52-8.56,15.233-7.553,23.904l12.333,106.28c0.485,4.171,4.25,7.154,8.43,6.676  c4.171-0.485,7.161-4.258,6.676-8.429L60.499,183.282c-0.507-4.366,0.879-8.753,3.803-12.036c2.923-3.282,7.121-5.165,11.517-5.165  H97.3l9.434,36.315H98.13c-6.162,0-12.047,2.639-16.144,7.24c-4.098,4.601-6.041,10.75-5.331,16.871L95.12,385.642  c1.265,10.904,10.498,19.128,21.475,19.128h195.282c10.977,0,20.209-8.222,21.475-19.128l18.467-159.135  c0.71-6.121-1.233-12.27-5.33-16.871c-4.098-4.602-9.982-7.241-16.145-7.241h-34.209l-27.866-27.865  c-5.059-5.059-11.806-7.846-18.998-7.846s-13.939,2.787-18.998,7.846l-16.668,16.668L198.2,175.793  c-4.778-4.778-10.924-7.37-17.19-7.79l0.077-1.923h171.568c4.395,0,8.594,1.883,11.517,5.165c2.923,3.283,4.309,7.67,3.803,12.036  l-34.797,299.862c-0.902,7.779-7.488,13.645-15.319,13.645H110.615c-7.832,0-14.418-5.866-15.319-13.645l-19.762-170.3  c-0.484-4.172-4.261-7.158-8.429-6.677c-4.172,0.485-7.161,4.258-6.677,8.429l19.761,170.304c1.793,15.449,14.872,27.1,30.427,27.1  h207.243c15.553,0,28.634-11.65,30.427-27.1l25.253-217.622C426.031,265.065,467.639,221.244,466.797,168.405z M155.518,22.926  c0.177-4.432,3.941-7.881,8.359-7.713c6.634,0.25,7.8,6.23,7.713,8.359l-5.114,127.303h-16.099L155.518,22.926z M149.198,180.25  l0.569-14.168h16.1l-0.221,5.513c-1.945,1.136-3.777,2.534-5.441,4.198l-9.791,9.791l-1.259-4.845  C149.171,180.577,149.191,180.416,149.198,180.25z M137.94,198.059l-4.337,4.337h-11.156l-9.434-36.315h16.619L137.94,198.059z   M78.82,34.452c-0.536-2.063-0.063-8.091,5.762-9.806c4.255-1.254,8.692,1.469,9.807,5.762l31.295,120.466h-16.619L78.82,34.452z   M310.422,217.604h19.921c1.827,0,3.572,0.783,4.787,2.146c1.216,1.365,1.791,3.189,1.581,5.003l-18.466,159.135  c-0.375,3.233-3.113,5.673-6.368,5.673H116.595c-3.256,0-5.993-2.438-6.368-5.673L91.762,224.754  c-0.211-1.815,0.365-3.638,1.582-5.003c1.215-1.364,2.958-2.146,4.786-2.146h20.773c-3.255,4.527-5.016,9.951-5.016,15.659  c0,7.191,2.786,13.939,7.846,18.998l38.471,38.471c5.238,5.238,12.118,7.857,18.998,7.857c6.88,0,13.76-2.619,18.998-7.857  l16.668-16.668l15.405,15.406c0.076,0.076,0.155,0.146,0.231,0.22l-18.663,36.596l-34.705-25.78  c-1.363-1.012-2.952-1.501-4.528-1.501c-2.323,0-4.694,1.004-6.108,3.067c-20.647,30.137-22.284,56.508-19.868,76.784  c0.241,2.026,1.287,3.869,2.901,5.117c1.339,1.035,2.977,1.588,4.65,1.588c0.344,0,0.688-0.023,1.033-0.07l96.631-13.247  c3.019-0.415,5.496-2.59,6.3-5.522c0.011-0.041,0.021-0.081,0.032-0.121c0.768-2.993-0.351-6.153-2.831-7.995l-17.48-12.985  l66.712-22.409c3.979-1.336,6.123-5.645,4.788-9.625c-4.129-12.319-9.675-23.873-24.881-40.335l22.253-22.253  C315.794,241.946,317.017,227.99,310.422,217.604z M203.962,351.898c3.049,3.801,7.466,2.605,8.261,2.338l8.085-2.715l11.021,8.186  l-70.193,9.623c-0.531-14.315,3.116-37.287,13.294-51.89l30.407,22.587l-1.809,3.546  C201.642,346.288,202.014,349.564,203.962,351.898z M225.037,333.887l18.916-37.091c1.732,0.344,3.511,0.521,5.319,0.521  c7.191,0,13.939-2.787,18.998-7.846l5.459-5.459c6.026,4.265,15.116,19.496,18.499,27.306L225.037,333.887z M187.447,186.548  l27.399,27.399c2.97,2.97,6.861,3.142,9.693,0.748c7.059-5.965-0.179-12.741-0.179-12.741l16.669-16.668  c2.187-2.187,5.115-3.392,8.244-3.392c3.129,0,6.057,1.204,8.244,3.391l38.471,38.471c4.546,4.546,4.546,11.943,0,16.489  l-38.471,38.471c-2.187,2.187-5.115,3.392-8.245,3.392c-3.13,0-6.058-1.204-8.245-3.391l-15.405-15.406l11.05-11.05  c7.715-7.718,9.981-19.655,5.636-29.704c-1.667-3.855-6.143-5.628-9.997-3.962c-3.855,1.667-5.629,6.143-3.962,9.997  c1.893,4.379,0.916,9.569-2.43,12.917l-38.471,38.471c-4.546,4.545-11.942,4.545-16.489,0l-38.471-38.472  c-2.187-2.187-3.391-5.115-3.391-8.244c0-3.129,1.204-6.058,3.391-8.245l38.471-38.47  C175.504,182.002,182.901,182.002,187.447,186.548z M289.478,150.874c0.317-1.328,0.66-2.646,1.041-3.95l9.982,3.95H289.478z   M352.655,150.874h-10.816l-45.707-18.084c7.498-14.728,19.302-26.93,33.777-34.899l22.946,52.989  C352.789,150.879,352.722,150.874,352.655,150.874z M369.086,150.09l-25.225-58.252c7.642-2.505,15.776-3.936,24.23-4.071  c8.455-0.135,16.634,1.021,24.354,3.281L369.086,150.09z M375.319,251.937l4.501-38.785l15.13,34.941  C388.705,250.138,382.127,251.45,375.319,251.937z M408.892,242.018l-25.348-58.537l59.142,23.647  C435.184,221.857,423.373,234.05,408.892,242.018z M448.311,193l-58.807-23.514l43.68-19.131c3.847-1.685,5.6-6.169,3.915-10.016  c-1.684-3.847-6.169-5.6-10.016-3.915l-43.831,19.196l23.323-58.946c26.276,13.385,44.515,40.491,45.017,71.972  C451.726,177.101,450.571,185.28,448.311,193z"/>
<g>
</g>
<g>
</g>
<g>
</g>
<g>
</g>
<g>
</g>
<g>
</g>
<g>
</g>
<g>
</g>
<g>
</g>
<g>
</g>
<g>
</g>
<g>
</g>
<g>
</g>
<g>
</g>
<g>
</g>
</svg>
