<svg width="414" height="299" xmlns="http://www.w3.org/2000/svg">
 <!-- Created with Method Draw - http://github.com/duopixel/Method-Draw/ -->
 <g>
  <title>background</title>
  <rect fill="none" id="canvas_background" height="301" width="416" y="-1" x="-1"/>
  <g display="none" overflow="visible" y="0" x="0" height="100%" width="100%" id="canvasGrid">
   <rect fill="url(#gridpattern)" stroke-width="0" y="0" x="0" height="100%" width="100%"/>
  </g>
 </g>
 <g>
  <title>Layer 1</title>
  <path d="m86.750893,254.721878c7.999947,-0.5 8.499939,-0.5 9.499931,-0.5c1.999985,0 2.499985,0 4.999962,0c1.999985,0 3.499977,0 3.999969,0c1.999985,0 4.007271,-0.147812 5.499962,0c2.537079,0.251221 4.499969,0.5 5.499962,0.5c1.999985,0 4.43924,0.246735 5.999954,0.5c2.467697,0.400452 27.021889,1.497025 49.499626,0.499985c22.56636,-1.000977 45.915421,-0.542999 48.499649,-5.499954c7.943283,-15.236465 1.64595,-31.331345 10.999908,-23.999817c10.741104,8.418777 -0.395477,30.833542 5.999954,45.499649c3.818268,8.756134 18.949417,2.352264 19.999863,-24.999802c1.52179,-39.625259 10.705566,-68.734802 20.999847,-50.499634c12.791016,22.657898 -6.48288,58.115479 1.499969,85.999374c3.209686,11.211395 21.99649,7.673218 23.999817,-26.999802c1.00943,-17.470749 11.900879,-40.828323 21.999847,-29.999786c12.732361,13.652176 0.883636,37.336563 7.499939,44.99968c4.094238,4.742004 3.334961,-8.371979 12.999908,-20.499863c12.244324,-15.364578 45.499664,-5.999954 70.499481,-6.999939l16.999878,-3.499985" id="svg_33" fill-opacity="null" stroke-opacity="null" stroke-width="7" stroke="#ff5c00" fill="none"/>
 </g>
</svg>