<svg width="414" height="299" xmlns="http://www.w3.org/2000/svg">
 <!-- Created with Method Draw - http://github.com/duopixel/Method-Draw/ -->
 <g>
  <title>background</title>
  <rect fill="none" id="canvas_background" height="301" width="416" y="-1" x="-1"/>
  <g display="none" overflow="visible" y="0" x="0" height="100%" width="100%" id="canvasGrid">
   <rect fill="url(#gridpattern)" stroke-width="0" y="0" x="0" height="100%" width="100%"/>
  </g>
 </g>
 <g>
  <title>Layer 1</title>
  <path d="m121.250641,243.471954c7.999939,0 9.468903,-0.24913 12.499908,-0.499985c1.993164,-0.164963 3.499969,0 4.999954,0c1,0 1.5,0 2.999985,0c1.999985,0 2.999969,0 4.999954,0c1.999985,0 2.43927,0.246719 3.999969,0.499985c1.974167,0.320358 2.999985,0 4.999969,0c2.499985,0 3.511169,-0.717697 26.499802,0c16.023285,0.500244 32.50386,2.344925 46.999649,1.999985c10.50885,-0.250061 5.448181,-4.150818 7.999939,-23.999817c1.511398,-11.756439 18.249847,-1.004791 18.499863,18.499863c0.217896,16.998474 8.188354,40.111237 18.999847,24.999817c20.149994,-28.163986 -19.222198,-104.344315 7.999969,-111.499176c18.151672,-4.770844 13.749878,45.996826 13.499878,78.99942c-0.181793,23.999115 -7.351166,53.712463 2.999969,60.999542c6.655548,4.685425 14.599274,-30.925781 12.499908,-61.999542c-1.753876,-25.959839 5.153656,-42.925613 10.999939,-34.999741c12.553619,17.019104 1.380066,35.535645 2.499969,49.499634c1.611267,20.090988 10.528351,25.610672 14.999878,11.999924c3.774536,-11.489166 0.330475,-18.298111 7.499969,-20.499863c20.09729,-6.17189 45.999634,1.999985 78.99939,3.999969l3,0" id="svg_36" fill-opacity="null" stroke-opacity="null" stroke-width="7" stroke="#ff5c00" fill="none"/>
 </g>
</svg>