<svg width="414" height="299" xmlns="http://www.w3.org/2000/svg">
 <!-- Created with Method Draw - http://github.com/duopixel/Method-Draw/ -->
 <g>
  <title>background</title>
  <rect fill="none" id="canvas_background" height="301" width="416" y="-1" x="-1"/>
  <g display="none" overflow="visible" y="0" x="0" height="100%" width="100%" id="canvasGrid">
   <rect fill="url(#gridpattern)" stroke-width="0" y="0" x="0" height="100%" width="100%"/>
  </g>
 </g>
 <g>
  <title>Layer 1</title>
  <path d="m106.250748,238.472c8.499939,1.499985 9.999931,1.499985 10.999924,1.499985c1.999985,0 4.43924,-0.246735 5.999954,-0.5c2.467697,-0.400452 4.999954,0 5.999954,0c2.499985,0 4.499969,0 5.999954,0c2.499985,0 3.999969,0 4.999969,0c2.499969,0 25.495117,-0.249969 45.499649,-0.499985c13.99881,-0.174957 27.004181,0.886032 43.99968,0.499985c11.008438,-0.250061 14.070602,-1.902786 13.999893,-13.499893c-0.064667,-10.606323 -0.798508,-21.791809 4.999969,-20.999847c12.784698,1.74614 11.247101,25.518433 10.499908,40.499695c-1.001221,20.074661 5.066925,29.549545 10.999939,21.499832c8.820038,-11.966751 -3.1633,-39.413071 2.499969,-77.999405c2.274078,-15.494354 16.753571,-14.551239 17.499878,18.999863c0.733948,32.995377 -12.18396,64.021454 -0.5,81.49939c5.220795,7.809753 17.821198,-16.464111 17.499878,-46.499649c-0.374542,-35.012024 7.353455,-49.153717 11.999908,-44.49968c16.437134,16.463989 -5.770416,51.369583 4.999939,61.999542c8.960388,8.843597 14.309326,-19.197189 22.999847,-25.499802c19.297241,-13.994904 44.999664,-1.999985 82.99939,0.499985l1.999969,0" id="svg_39" fill-opacity="null" stroke-opacity="null" stroke-width="7" stroke="#ff5c00" fill="none"/>
 </g>
</svg>