<svg width="414" height="299" xmlns="http://www.w3.org/2000/svg">
 <!-- Created with Method Draw - http://github.com/duopixel/Method-Draw/ -->
 <g>
  <title>background</title>
  <rect fill="none" id="canvas_background" height="301" width="416" y="-1" x="-1"/>
  <g display="none" overflow="visible" y="0" x="0" height="100%" width="100%" id="canvasGrid">
   <rect fill="url(#gridpattern)" stroke-width="0" y="0" x="0" height="100%" width="100%"/>
  </g>
 </g>
 <g>
  <title>Layer 1</title>
  <text stroke="#ff5c00" transform="matrix(1.8638574750424486,0,0,1.7966083447499197,-111.6192415744963,-123.7460241570903) " font-weight="normal" xml:space="preserve" text-anchor="start" font-family="'Trebuchet MS', Gadget, sans-serif" font-size="24" id="svg_43" y="144.345603" x="82.225743" stroke-opacity="null" stroke-width="0" fill="#2db588">speak</text>
  <text stroke="#ff5c00" transform="matrix(1.9289319153670375,0,0,1.8134138444283134,-295.641752530851,-122.2911185525907) " font-weight="normal" xml:space="preserve" text-anchor="start" font-family="'Trebuchet MS', Gadget, sans-serif" font-size="24" id="svg_44" y="141.321109" x="293.600348" stroke-opacity="null" stroke-width="0" fill="#ff5c00">easy</text>
  <path d="m-8.248398,145.472687c8.499937,-0.5 9.499929,-0.5 10.999918,-0.5c1.999985,0 2.499981,0 4.999963,0c1.999985,0 2.999978,0 4.499967,0c1.499989,0 2.499982,0 4.499966,0c2.499982,0 3.499974,0 5.499959,0c1.999986,0 3.000164,0.030487 5.49996,0c20.504419,-0.250015 37.994783,0.249985 56.999578,0.5c16.498444,0.217056 28.999779,0 43.499672,0c18.999855,0 28.508003,0.394806 37.999718,0c6.015549,-0.250214 7.749969,-5.494278 7.499939,-21.999832c-0.106018,-6.999146 6.716034,-6.517578 8.499939,2.499977c2.037659,10.300316 -1.341293,22.196373 1,33.499748c1.60347,7.741318 12.850922,7.661148 13.499893,-10.499908c0.805283,-22.5354 -14.872879,-48.410934 -0.999985,-66.999512c2.945313,-3.94648 11.614212,5.968468 11.999908,19.499855c0.840637,29.492043 0.5,45.999657 0.5,60.99955c0,13.999893 -4.249878,28.240463 0.999985,34.999741c4.271851,5.500061 11.641907,-0.465179 11.999908,-12.999908c0.628235,-21.996536 -0.870178,-43.003113 -0.5,-62.999527c0.250046,-13.506844 3.596497,-25.008537 8.999939,-21.99984c11.466599,6.38472 3.750061,31.501656 3.999969,47.999641c0.250031,16.505554 2.600861,28.726028 8.999939,28.499786c8.840317,-0.312546 -1.508942,-34.609772 8.499939,-48.999634c4.986084,-7.168533 8.559311,8.602509 14.499878,18.499863c6.137909,10.226151 34.492096,6.213409 66.499512,5.499969c37.493744,-0.835724 76.49942,-1 100.999237,-1.999985l8.499939,-0.5" id="svg_50" fill-opacity="null" stroke-opacity="null" stroke-width="6" stroke="#ff5c00" fill="none"/>
 </g>
</svg>