<svg width="580" height="400" xmlns="http://www.w3.org/2000/svg">
 <!-- Created with Method Draw - http://github.com/duopixel/Method-Draw/ -->
 <g>
  <title>background</title>
  <rect fill="#fff" id="canvas_background" height="402" width="582" y="-1" x="-1"/>
  <g display="none" overflow="visible" y="0" x="0" height="100%" width="100%" id="canvasGrid">
   <rect fill="url(#gridpattern)" stroke-width="0" y="0" x="0" height="100%" width="100%"/>
  </g>
 </g>
 <g>
  <title>Layer 1</title>
  <path d="m-26.75,224.89389c13.076948,-1.538467 16.928351,-1.411575 18.461574,-1.538467c4.663115,-0.385941 9.230787,-0.769241 10.769251,-0.769241c3.076929,0 4.615394,0 6.92309,0c3.076929,0 4.615394,0 8.461555,0c2.307697,0 5.384626,0 8.461554,0c1.538465,0 39.882664,2.8293 80.000149,3.076935c47.790642,0.294998 88.461708,-3.076935 116.923302,-3.076935c22.307724,0 44.348831,3.124725 54.615494,-8.461548c7.584015,-8.558777 -1.797607,-26.519836 6.153839,-40.769302c5.855103,-10.492722 20.000061,-0.769241 20.000061,12.307709c0,11.538483 0,26.1539 0,41.538544c0,16.15387 0,31.538513 0,43.076996c0,6.923096 4.428284,17.587158 13.846161,12.307709c5.772095,-3.235718 5.950928,-16.9245 6.15387,-31.538513c0.384644,-27.700363 1.538452,-54.615479 1.538452,-82.307846c0,-26.923126 -8.158173,-56.740089 -3.846161,-72.307823c4.789185,-17.290428 24.974884,-9.697884 26.923126,2.307693c2.341125,14.426689 -0.769226,36.923149 -0.769226,50.000099c0,19.230804 0.384521,39.218826 0.769226,57.692413c0.256256,12.305038 -0.383423,20.777969 0,29.23082c0.38501,8.487732 2.462738,23.530029 10.000031,24.615448c9.540039,1.37384 14.5289,-16.141632 14.615417,-40.000092c0.111603,-30.778702 -3.303528,-55.073715 1.538452,-74.615524c3.572998,-14.420273 19.572937,-14.906433 23.076965,-2.307693c3.921692,14.100433 1.538452,29.98175 1.538452,46.153931c0,16.17218 -3.171173,32.737778 -0.769226,39.23085c2.460541,6.651443 14.343323,9.26532 19.230804,3.846161c4.749786,-5.266479 3.024323,-21.076355 10.000031,-23.076965c17.746185,-5.089523 52.3078,0 99.230957,0.769226l58.46167,0.769226l14.615356,0.769241" id="svg_21" stroke-width="1.5" stroke="#3bd698" fill="#35dda8"/>
  <path d="m138.750005,637.037763c12.5,1.666656 13.333333,1.666656 15,1.666656c0.833333,0 3.333333,0.833344 5.833333,0.833344c0.833333,0 3.333333,0 5.833333,0c0.833333,0 2.5,0 4.166667,0c1.666667,0 4.166667,0.833328 5.833333,0.833328c1.666666,0 3.333333,0 5.833333,0c3.333334,0 4.233543,0.574371 6.666666,0c1.813541,-0.428116 3.333334,-0.833328 5,-0.833328c0.833334,0 3.333334,0 5.833334,0c22.5,0 43.333336,0 65,0c22.5,0 42.5,0 62.5,0c17.5,0 35,0 50,0c13.333328,0 26.666672,0 40,0c7.5,0 15.60257,0.021317 20,-2.5c5.646271,-3.237366 2.370056,-21.263199 5.833344,-35c3.007935,-11.930679 17.409943,-11.204468 20,3.333328c2.197327,12.333542 0.833313,25.833328 0.833313,42.5c0,17.5 -2.938599,34.151947 1.666687,45c3.712891,8.745972 10.317169,12.427856 14.166656,10.833344c4.355225,-1.803986 9.5849,-18.818207 10.833344,-41.666672c1.230927,-22.528046 -2.109558,-44.181732 -3.333344,-70.833344c-1.263733,-27.521454 -3.541168,-46.648064 -3.333344,-64.166664c0.138733,-11.695564 6.150543,-20.369598 10.833344,-21.666664c3.212402,-0.889782 10.535034,7.370613 12.5,16.666664c5.752136,27.21257 2.916748,62.487999 2.5,84.166664c-0.400421,20.829498 0,40.833344 0,55.833344c0,10.833328 8.12735,21.665543 15,16.666656c19.309875,-14.045197 12.083374,-54.158646 11.666656,-86.666656c-0.352478,-27.497749 10.121887,-40.985458 16.666687,-33.333336c10.118835,11.830879 3.806427,35.035637 5,54.999992c1.252228,20.945404 2.256744,36.983078 8.333313,42.5c3.90213,3.542755 12.818207,2.199112 15.833344,-5.833328c4.193054,-11.170471 7.473969,-16.873993 20,-16.666672c16.747498,0.277191 37.510315,3.746582 79.166687,2.5c41.781067,-1.250305 47.516113,-3.851135 55.833313,-3.333328c6.705566,0.417465 9.710266,2.389709 11.666687,0.833328c17.401489,-13.843109 3.333313,-60.833328 3.333313,-119.166664c0,-32.499996 4.549866,-74.062123 -0.833313,-78.333331c-41.784973,-33.153562 -139.86557,-10.045686 -264.166687,-10.833333c-145.916092,-0.924614 -264.23241,4.075025 -310,6.666667c-17.551069,0.99385 -18.333461,19.144744 -17.5,66.666665c1.636672,93.318981 -0.833333,163.33334 -1.666667,198.33334l0,13.333328" id="svg_25" stroke-width="1.5" stroke="#3bd698" fill="#45e09f"/>
 </g>
</svg>