<svg width="414" height="233" xmlns="http://www.w3.org/2000/svg">
 <!-- Created with Method Draw - http://github.com/duopixel/Method-Draw/ -->

 <g>
  <title>background</title>
  <rect x="-1" y="-1" width="416" height="235" id="canvas_background" fill="none"/>
  <g id="canvasGrid" display="none">
   <rect id="svg_1" width="100%" height="100%" x="0" y="0" stroke-width="0" fill="url(#gridpattern)"/>
  </g>
 </g>
 <g>
  <title>Layer 1</title>
  <text fill="#2db588" stroke-width="0" stroke-opacity="null" x="82.225743" y="144.345603" id="svg_43" font-size="24" font-family="'Trebuchet MS', Gadget, sans-serif" text-anchor="start" xml:space="preserve" font-weight="normal" transform="matrix(1.8638574750424486,0,0,1.7966083447499197,-111.6192415744963,-123.7460241570903) " stroke="#ff5c00">speak</text>
  <text fill="#ff5c00" stroke-width="0" stroke-opacity="null" x="293.600348" y="141.321109" id="svg_44" font-size="24" font-family="'Trebuchet MS', Gadget, sans-serif" text-anchor="start" xml:space="preserve" font-weight="normal" transform="matrix(1.9289319153670375,0,0,1.8134138444283134,-295.641752530851,-122.2911185525907) " stroke="#ff5c00">easy</text>
  <path fill="none" stroke="#ff5c00" stroke-width="6" stroke-opacity="null" fill-opacity="null" id="svg_50" d="m-8.2484,145.47269c8.49994,-0.5 9.49993,-0.5 10.99992,-0.5c1.99998,0 2.49998,0 4.99996,0c1.99999,0 2.99998,0 4.49997,0c1.49999,0 2.49998,0 4.49997,0c2.49998,0 3.49997,0 5.49995,0c1.99999,0 3.00017,0.03048 5.49996,0c20.50442,-0.25002 37.99479,0.24998 56.99958,0.5c16.49845,0.21705 28.99978,0 43.49968,0c18.99985,0 28.508,0.3948 37.99971,0c6.01555,-0.25022 7.74997,-5.49428 7.49994,-21.99983c-0.10602,-6.99915 6.71604,-6.51758 8.49994,2.49997c2.03766,10.30032 -1.34129,22.19638 1,33.49975c1.60347,7.74132 12.85092,7.66115 13.49989,-10.49991c0.80529,-22.5354 -14.87287,-48.41093 -0.99998,-66.99951c2.94531,-3.94648 11.61421,5.96847 11.99991,19.49985c0.84063,29.49205 0.5,45.99966 0.5,60.99955c0,13.9999 -4.24988,28.24047 0.99998,34.99975c4.27185,5.50006 11.64191,-0.46518 11.99991,-12.99991c0.62824,-21.99654 -0.87018,-43.00312 -0.5,-62.99953c0.25005,-13.50684 3.5965,-25.00854 8.99994,-21.99984c11.4666,6.38472 3.75006,31.50166 3.99997,47.99964c0.25003,16.50556 2.60086,28.72603 8.99994,28.49979c8.84031,-0.31255 -1.50894,-34.60977 8.49994,-48.99964c4.98608,-7.16853 8.55931,8.60251 14.49987,18.49987c6.13791,10.22615 34.4921,6.21341 66.49952,5.49997c37.49374,-0.83573 76.49942,-1 100.99923,-1.99999l8.49994,-0.5"/>
 </g>
</svg>